<svg xmlns="http://www.w3.org/2000/svg" viewBox="0 0 960 32" width="960" height="32" role="img" aria-hidden="true">
  <defs>
    <linearGradient id="goldLine" x1="0" y1="0" x2="1" y2="0">
      <stop offset="0" stop-color="#c9a227" stop-opacity="0"/>
      <stop offset="0.15" stop-color="#d4af37" stop-opacity="0.9"/>
      <stop offset="0.5" stop-color="#e6c453" stop-opacity="1"/>
      <stop offset="0.85" stop-color="#d4af37" stop-opacity="0.9"/>
      <stop offset="1" stop-color="#c9a227" stop-opacity="0"/>
    </linearGradient>
  </defs>
  <polygon points="480,4 488,16 480,28 472,16" fill="none" stroke="#d4af37" stroke-width="1.5"/>
  <polygon points="480,8 484,16 480,24 476,16" fill="#5cc4a4" fill-opacity="0.35"/>
  <line x1="40" y1="16" x2="468" y2="16" stroke="url(#goldLine)" stroke-width="1"/>
  <line x1="492" y1="16" x2="920" y2="16" stroke="url(#goldLine)" stroke-width="1"/>
  <g stroke="#5cc4a4" stroke-opacity="0.5" stroke-width="1">
    <line x1="120" y1="12" x2="120" y2="20"/>
    <line x1="240" y1="10" x2="240" y2="22"/>
    <line x1="360" y1="12" x2="360" y2="20"/>
    <line x1="600" y1="12" x2="600" y2="20"/>
    <line x1="720" y1="10" x2="720" y2="22"/>
    <line x1="840" y1="12" x2="840" y2="20"/>
  </g>
  <path d="M 24 16 L 32 8 L 32 24 Z" fill="none" stroke="#c9a227" stroke-width="1"/>
  <path d="M 936 16 L 928 8 L 928 24 Z" fill="none" stroke="#c9a227" stroke-width="1"/>
</svg>
